<?xml version="1.0" standalone="no"?><!DOCTYPE svg PUBLIC "-//W3C//DTD SVG 1.1//EN" "http://www.w3.org/Graphics/SVG/1.1/DTD/svg11.dtd"><svg t="1542811424834" class="icon" style="" viewBox="0 0 1024 1024" version="1.1" xmlns="http://www.w3.org/2000/svg" p-id="12403" xmlns:xlink="http://www.w3.org/1999/xlink" width="32" height="32"><defs><style type="text/css"></style></defs><path d="M758.60954112 157.62014777c-31.0689189 21.84533333-61.65238557 40.77795555-95.14856334 67.96326002-25.24349667 20.38897778-70.87596999 48.54518557-73.30323001 86.8958811-3.88361443 57.76876999 85.43952555 111.16847445 37.86524444 184.47170332-17.9617189 28.15620779-48.54518557 39.80705223-86.8958811 56.79786667-4.8545189-8.2526811 10.19448889-15.53445888 16.50536334-24.27259221 59.22512555-85.92497778-61.65238557-114.56663666-46.11792668-219.90968889s134.95561443-137.86832555 247.09499335-151.94643001zM380.928 510.54364445c-28.15620779 13.1072-74.75958557 15.53445888-95.14856334 43.69066666 20.87443001 15.53445888 50.97244445 15.04900779 78.6432 16.50536334 114.56663666 5.33996999 257.77493333-4.36906667 355.83620779-21.84533333 3.39816334 7.28177778-13.59265223 19.41807445-24.27259222 27.18530333-61.65238557 45.14702222-253.40586667 57.76876999-385.44877113 49.03063665-44.1761189-2.91271111-145.63555555-14.56355555-146.60645888-54.37060665-1.45635555-48.05973333 122.8193189-53.39970333 173.79176335-56.79786666 10.19448889-0.97090333 28.64165888-4.8545189 43.69066666-2.91271112z m-56.79786667 122.33386666c12.62174777 1.45635555-8.73813333 9.22358557-5.33996999 18.93262222 46.60337778 46.11792555 192.23893333 33.01072555 263.60035556 18.93262222 15.04900779-2.91271111 30.09801443-12.13629667 40.77795555-10.67994112 27.18530333 2.42725888 44.66156999 33.98163001 67.96325888 37.86524445C608.11946667 735.30785223 448.89125888 752.7841189 332.38281443 730.45333333c-30.09801443-5.82542222-82.52681443-21.84533333-83.98316998-46.11792554-2.42725888-33.01072555 51.94334777-46.60337778 76.21594112-51.45789668z m35.43798557 111.16847446c8.2526811 2.91271111-2.91271111 7.28177778-2.91271111 10.67993998 24.75804445 42.71976334 147.09191111 27.67075555 209.22974776 13.59265223 12.62174777-2.91271111 24.75804445-11.65084445 35.43798557-10.67994112 31.55436999 1.94180779 43.69066667 34.95253333 70.39051776 40.77795555-86.8958811 52.91425223-296.6110811 74.27413333-383.02151111 8.25268224-3.88361443-48.54518557 34.95253333-53.88515555 70.3905189-62.62328888z m-79.12865223 81.5559111c-25.72894777 6.31087445-92.72130333-2.91271111-95.14856334 32.52527332-0.97090333 13.59265223 22.81623666 29.61256334 37.86524444 35.43798556 88.35223666 33.49617778 266.51306667 38.35069667 412.63407445 21.84533334 67.96325888-7.76723001 195.63709667-30.58346667 179.13173333-100.48853334 20.38897778 2.42725888 38.35069667 15.53445888 40.77795556 35.43798557 8.2526811 74.75958557-164.08272555 106.31395555-233.50234112 114.08118443-151.46097778 16.50536334-340.30174777 13.1072-456.32473998-27.18530333-37.86524445-13.1072-83.4977189-37.37979221-81.55591111-73.30323001 3.39816334-60.6814811 150.00462222-77.67229667 195.63709553-37.86524444z m231.0750811 225.24965888c-101.94488889-11.16539221-200.00616334-26.2144-282.53297778-62.62328888 216.02607445 51.94334777 530.59887445 48.05973333 681.5744-62.62328889 8.2526811-5.82542222 15.53445888-17.47626667 27.18530446-16.50536335-37.86524445 114.08118557-183.98625223 121.84841443-309.71828224 141.2664889h-116.50844444zM581.90506667-26.85155555c18.93262222 17.9617189 32.52527445 51.45789667 32.52527445 86.8958811 0 104.8576-111.16847445 166.02453333-165.53908224 236.41505223-12.13629667 15.53445888-27.18530333 39.80705223-27.18530333 65.05054777 0.48545223 57.2833189 59.71057778 121.36296334 81.55591112 168.45179335-37.86524445-24.75804445-83.98316999-58.25422222-116.99389668-97.57582223S321.21742222 328.98465223 351.31543666 274.12859221c44.66156999-82.52681443 178.16083001-131.55745223 225.24966001-219.90968888 11.65084445-21.3598811 20.38897778-54.37060779 5.33997-81.55591112z m160.19911111 565.06595555c55.82696334-47.5742811 150.49007445-29.12711111 154.85914112 51.45789667 4.8545189 94.66311111-99.03217778 147.57736334-173.79176335 151.94642888 34.95253333-33.01072555 126.70293333-86.41043001 108.74121444-163.11182222-7.28177778-31.0689189-46.11792555-49.51608889-89.80859221-40.77795556z m0 0" fill="#ff9a3a" p-id="12404"></path></svg>